<?xml version="1.0" encoding="utf-8"?>
<!-- Generator: Adobe Illustrator 23.1.0, SVG Export Plug-In . SVG Version: 6.00 Build 0)  -->
<svg version="1.1" xmlns="http://www.w3.org/2000/svg" xmlns:xlink="http://www.w3.org/1999/xlink" x="0px" y="0px"
	 viewBox="0 0 500 500" style="enable-background:new 0 0 500 500;" xml:space="preserve">
<style type="text/css">
	.st0{display:none;}
	.st1{display:inline;fill:#666666;}
	.st2{fill:#FFFFFF;}
</style>
<g id="HG" class="st0">
	<rect x="-520" y="-520" class="st1" width="1020" height="1020"/>
</g>
<g id="Icons">
	<g>
		<path class="st2" d="M386.47,89.24c-5.18,0-10.2,1.41-14.56,4.08c-4.37-2.67-9.38-4.08-14.56-4.08c-7.47,0-14.48,2.91-19.76,8.19
			c-10.89,10.9-10.89,28.63,0,39.52l29.12,29.12c1.39,1.39,3.24,2.16,5.2,2.16c1.96,0,3.81-0.77,5.2-2.16l29.12-29.12
			c5.28-5.28,8.19-12.3,8.19-19.76s-2.91-14.48-8.19-19.76C400.95,92.15,393.94,89.24,386.47,89.24z M348,107.83
			c2.5-2.5,5.82-3.88,9.36-3.88s6.86,1.38,9.36,3.88c2.87,2.87,7.54,2.87,10.4,0c2.5-2.5,5.82-3.87,9.36-3.87
			c3.53,0,6.86,1.38,9.36,3.88s3.88,5.82,3.88,9.36c0,3.53-1.38,6.86-3.88,9.36l-23.91,23.91L348,126.55
			C342.84,121.39,342.84,113,348,107.83z"/>
		<path class="st2" d="M350.9,30H149.1C83.43,30,30,83.43,30,149.1v201.8C30,416.57,83.43,470,149.1,470h201.8
			c65.67,0,119.1-53.43,119.1-119.1V149.1C470,83.43,416.57,30,350.9,30z M444.21,350.9c0,51.45-41.86,93.31-93.31,93.31H149.1
			c-51.45,0-93.31-41.86-93.31-93.31V149.1c0-51.45,41.86-93.31,93.31-93.31h201.8c51.45,0,93.31,41.86,93.31,93.31V350.9z"/>
		<path class="st2" d="M250,129.69c-66.34,0-120.31,53.97-120.31,120.31S183.66,370.31,250,370.31S370.31,316.34,370.31,250
			S316.34,129.69,250,129.69z M250,344.51c-52.11,0-94.51-42.4-94.51-94.51c0-52.11,42.4-94.51,94.51-94.51
			c52.12,0,94.51,42.4,94.51,94.51C344.51,302.12,302.12,344.51,250,344.51z"/>
	</g>
</g>
</svg>
