<?xml version="1.0" encoding="utf-8"?>
<!-- Generator: Adobe Illustrator 23.1.0, SVG Export Plug-In . SVG Version: 6.00 Build 0)  -->
<svg version="1.1" xmlns="http://www.w3.org/2000/svg" xmlns:xlink="http://www.w3.org/1999/xlink" x="0px" y="0px"
	 viewBox="0 0 500 500" style="enable-background:new 0 0 500 500;" xml:space="preserve">
<style type="text/css">
	.st0{display:none;}
	.st1{display:inline;fill:#666666;}
	.st2{fill:#FFFFFF;}
</style>
<g id="HG" class="st0">
	<rect y="-520" class="st1" width="1020" height="1020"/>
</g>
<g id="Icons">
	<g>
		<path class="st2" d="M133.64,197.84c-0.81-0.28-1.89-0.53-3.23-0.73c-1.34-0.2-3.03-0.3-5.07-0.3c-1.87,0-3.48,0.1-4.82,0.3
			c-1.34,0.2-2.44,0.45-3.3,0.73c-0.85,0.29-1.46,0.67-1.83,1.16s-0.55,1.06-0.55,1.71v151.61c0,0.65,0.16,1.22,0.49,1.71
			c0.32,0.49,0.89,0.88,1.71,1.16c0.81,0.29,1.91,0.53,3.3,0.73c1.38,0.2,3.05,0.3,5,0.3c2.03,0,3.72-0.1,5.07-0.3
			c1.34-0.2,2.42-0.45,3.23-0.73c0.81-0.29,1.38-0.67,1.71-1.16c0.32-0.49,0.49-1.06,0.49-1.71V200.71c0-0.65-0.16-1.22-0.49-1.71
			C135.02,198.52,134.45,198.13,133.64,197.84z"/>
		<path class="st2" d="M251.38,282.93c-3.38-3.38-7.22-6.31-11.54-8.79c-4.31-2.48-8.71-4.76-13.18-6.84
			c-4.48-2.08-8.87-4.13-13.18-6.17c-4.31-2.03-8.16-4.27-11.54-6.71c-3.38-2.44-6.08-5.25-8.12-8.42
			c-2.04-3.17-3.05-6.96-3.05-11.35c0-3.01,0.53-5.86,1.59-8.54c1.06-2.69,2.64-5,4.76-6.96c2.12-1.95,4.8-3.52,8.06-4.7
			c3.25-1.18,7.08-1.77,11.47-1.77c4.72,0,8.97,0.59,12.76,1.77c3.78,1.18,7.06,2.48,9.83,3.91c2.77,1.42,5.11,2.71,7.02,3.85
			c1.91,1.14,3.31,1.71,4.21,1.71c0.57,0,1.08-0.18,1.53-0.55c0.45-0.37,0.79-0.94,1.04-1.71s0.43-1.73,0.55-2.87
			c0.12-1.14,0.18-2.44,0.18-3.91c0-1.54-0.04-2.81-0.12-3.78c-0.08-0.98-0.2-1.81-0.37-2.5c-0.16-0.69-0.37-1.26-0.61-1.71
			c-0.24-0.45-0.75-1.06-1.53-1.83c-0.77-0.77-2.38-1.79-4.82-3.05c-2.44-1.26-5.23-2.4-8.36-3.42c-3.13-1.02-6.47-1.83-10.01-2.44
			c-3.54-0.61-7.06-0.92-10.56-0.92c-6.84,0-13.2,0.92-19.1,2.75c-5.9,1.83-10.99,4.5-15.26,8c-4.27,3.5-7.61,7.83-10.01,13
			c-2.4,5.17-3.6,11.05-3.6,17.64c0,6.43,1.04,11.94,3.11,16.54s4.78,8.61,8.12,12.02c3.34,3.42,7.12,6.39,11.35,8.91
			c4.23,2.52,8.58,4.82,13.06,6.9c4.47,2.07,8.85,4.11,13.12,6.1s8.08,4.19,11.41,6.59c3.34,2.4,6.02,5.19,8.06,8.36
			c2.03,3.17,3.05,7,3.05,11.47c0,4.15-0.73,7.85-2.2,11.11c-1.46,3.26-3.56,6-6.29,8.24c-2.73,2.24-5.98,3.97-9.77,5.19
			s-7.96,1.83-12.51,1.83c-6.02,0-11.33-0.71-15.93-2.14c-4.6-1.42-8.53-2.95-11.78-4.58c-3.26-1.63-5.92-3.13-8-4.52
			c-2.08-1.38-3.68-2.08-4.82-2.08c-0.65,0-1.22,0.14-1.71,0.43c-0.49,0.29-0.9,0.79-1.22,1.53c-0.33,0.73-0.57,1.69-0.73,2.87
			c-0.16,1.18-0.24,2.67-0.24,4.46c0,2.52,0.22,4.54,0.67,6.04c0.45,1.51,1.14,2.75,2.08,3.72c0.93,0.98,2.6,2.16,5,3.54
			c2.4,1.38,5.37,2.73,8.91,4.03c3.54,1.3,7.57,2.4,12.08,3.3c4.52,0.89,9.42,1.34,14.71,1.34c7.57,0,14.63-1.02,21.18-3.05
			c6.55-2.03,12.25-5.07,17.09-9.09c4.84-4.03,8.63-8.93,11.35-14.71c2.73-5.78,4.09-12.37,4.09-19.78c0-6.27-1.04-11.7-3.11-16.3
			S254.75,286.3,251.38,282.93z"/>
		<path class="st2" d="M407.99,215.79c-5.74-6.71-12.92-11.82-21.55-15.32c-8.63-3.5-18.76-5.25-30.4-5.25
			c-12.04,0-22.58,1.93-31.62,5.8c-9.03,3.87-16.56,9.36-22.58,16.48c-6.02,7.12-10.54,15.77-13.55,25.94
			c-3.01,10.17-4.52,21.48-4.52,33.94c0,13.02,1.38,24.54,4.15,34.55c2.77,10.01,6.98,18.39,12.63,25.15
			c5.66,6.76,12.82,11.9,21.48,15.44c8.67,3.54,18.94,5.31,30.82,5.31c12.04,0,22.58-1.93,31.62-5.8c9.03-3.87,16.54-9.4,22.52-16.6
			c5.98-7.2,10.48-15.93,13.49-26.18c3.01-10.25,4.52-21.77,4.52-34.55c0-12.78-1.4-24.11-4.21-34
			C418,230.8,413.73,222.5,407.99,215.79z M400.37,300.44c-1.63,7.65-4.35,14.38-8.17,20.2c-3.82,5.82-8.86,10.44-15.12,13.86
			c-6.26,3.42-13.98,5.13-23.16,5.13c-9.27,0-16.97-1.57-23.1-4.7c-6.14-3.13-11.03-7.53-14.69-13.18
			c-3.66-5.66-6.26-12.39-7.8-20.2S306,285.19,306,275.91c0-8.38,0.83-16.38,2.5-23.99s4.43-14.26,8.29-19.96
			c3.86-5.7,8.88-10.25,15.06-13.67c6.18-3.42,13.82-5.13,22.92-5.13c9.1,0,16.74,1.59,22.92,4.76c6.18,3.17,11.11,7.59,14.81,13.25
			c3.7,5.66,6.34,12.33,7.93,20.02c1.58,7.69,2.38,16.01,2.38,24.96C402.81,284.7,401.99,292.8,400.37,300.44z"/>
		<path class="st2" d="M233.09,128.24c0.87,0.35,1.77,0.51,2.65,0.51c2.83,0,5.51-1.7,6.62-4.49l5.81-14.53h98.75l5.81,14.53
			c1.12,2.79,3.79,4.49,6.62,4.49c0.88,0,1.78-0.16,2.65-0.51c3.66-1.46,5.44-5.61,3.97-9.27l-7.61-19.02
			c-0.01-0.02-0.01-0.03-0.02-0.04c-0.06-0.15-0.13-0.3-0.21-0.45c-0.03-0.07-0.06-0.14-0.1-0.2c-0.06-0.12-0.14-0.24-0.21-0.35
			c-0.05-0.09-0.1-0.18-0.16-0.26c-0.05-0.07-0.11-0.14-0.16-0.22c-0.09-0.12-0.17-0.24-0.26-0.35c-0.02-0.03-0.04-0.05-0.07-0.07
			c-0.28-0.33-0.58-0.63-0.9-0.9c-0.03-0.02-0.06-0.04-0.09-0.07c-0.15-0.12-0.3-0.23-0.45-0.34c-0.16-0.11-0.34-0.22-0.51-0.31
			c-0.02-0.01-0.04-0.03-0.06-0.04c-0.37-0.21-0.77-0.37-1.18-0.51c-0.03-0.01-0.05-0.02-0.08-0.03c-0.14-0.05-0.29-0.08-0.44-0.12
			c-0.08-0.02-0.16-0.05-0.25-0.06c-0.1-0.02-0.21-0.04-0.32-0.05c-0.13-0.02-0.26-0.05-0.39-0.06c-0.08-0.01-0.16-0.01-0.24-0.02
			c-0.16-0.01-0.33-0.02-0.49-0.02c-0.02,0-0.03,0-0.05,0H243.35c-0.01,0-0.03,0-0.04,0c-0.18,0-0.35,0.01-0.52,0.03
			c-0.07,0.01-0.13,0.01-0.2,0.01c-0.15,0.02-0.29,0.04-0.44,0.07c-0.09,0.02-0.18,0.03-0.27,0.05c-0.1,0.02-0.2,0.05-0.3,0.08
			c-0.13,0.03-0.26,0.06-0.39,0.1c-0.05,0.01-0.09,0.04-0.14,0.05c-0.17,0.06-0.34,0.12-0.51,0.19c-0.01,0-0.02,0.01-0.03,0.01
			c-0.2,0.09-0.4,0.18-0.58,0.28c-0.05,0.03-0.09,0.06-0.13,0.08c-0.15,0.09-0.3,0.17-0.44,0.27c-0.16,0.11-0.32,0.23-0.48,0.36
			c-0.02,0.02-0.04,0.03-0.06,0.05c-0.32,0.27-0.62,0.57-0.9,0.89c-0.02,0.03-0.05,0.05-0.07,0.08c-0.09,0.11-0.18,0.23-0.26,0.35
			c-0.05,0.07-0.11,0.14-0.16,0.22c-0.06,0.08-0.11,0.17-0.16,0.26c-0.07,0.12-0.15,0.23-0.21,0.36c-0.03,0.07-0.06,0.14-0.1,0.2
			c-0.07,0.15-0.15,0.3-0.21,0.45c-0.01,0.02-0.01,0.03-0.02,0.04l-7.61,19.02C227.65,122.62,229.43,126.77,233.09,128.24z"/>
		<path class="st2" d="M444.95,114.48h-43.51L374.99,70.4c-0.03-0.04-0.06-0.08-0.08-0.12c-0.08-0.12-0.15-0.24-0.24-0.35
			c-0.06-0.09-0.12-0.17-0.19-0.25c-0.07-0.09-0.15-0.19-0.23-0.28c-0.08-0.09-0.16-0.18-0.24-0.27c-0.07-0.08-0.15-0.15-0.22-0.22
			c-0.09-0.09-0.19-0.18-0.28-0.26c-0.08-0.07-0.16-0.13-0.24-0.19c-0.1-0.08-0.2-0.15-0.3-0.22c-0.09-0.06-0.19-0.13-0.28-0.19
			c-0.09-0.06-0.19-0.12-0.29-0.17c-0.11-0.06-0.23-0.12-0.34-0.18c-0.09-0.04-0.17-0.09-0.26-0.12c-0.13-0.06-0.26-0.11-0.39-0.16
			c-0.08-0.03-0.16-0.06-0.25-0.09c-0.13-0.05-0.27-0.08-0.41-0.12c-0.09-0.02-0.18-0.05-0.27-0.07c-0.13-0.03-0.26-0.05-0.39-0.08
			c-0.11-0.02-0.21-0.04-0.32-0.05c-0.11-0.01-0.23-0.03-0.35-0.04c-0.13-0.01-0.26-0.02-0.39-0.02c-0.05,0-0.11-0.01-0.16-0.01
			H226.23c-0.05,0-0.1,0.01-0.15,0.01c-0.14,0-0.28,0.01-0.42,0.02c-0.11,0.01-0.21,0.02-0.32,0.03c-0.12,0.01-0.23,0.03-0.35,0.05
			c-0.12,0.02-0.25,0.05-0.37,0.07c-0.1,0.02-0.19,0.05-0.29,0.07c-0.13,0.04-0.26,0.07-0.39,0.12c-0.09,0.03-0.18,0.06-0.27,0.1
			c-0.13,0.05-0.25,0.1-0.37,0.15c-0.09,0.04-0.18,0.09-0.27,0.13c-0.11,0.05-0.22,0.11-0.33,0.17c-0.1,0.06-0.2,0.12-0.29,0.18
			c-0.09,0.06-0.19,0.12-0.28,0.18c-0.1,0.07-0.2,0.15-0.3,0.23c-0.08,0.06-0.16,0.13-0.24,0.19c-0.1,0.08-0.19,0.17-0.28,0.26
			c-0.08,0.07-0.15,0.15-0.23,0.22c-0.08,0.09-0.16,0.17-0.24,0.26c-0.08,0.09-0.16,0.19-0.23,0.28c-0.06,0.08-0.13,0.16-0.19,0.25
			c-0.08,0.12-0.16,0.23-0.24,0.35c-0.03,0.04-0.06,0.08-0.08,0.12l-26.45,44.08h-64.91v-21.4c0-3.94-3.19-7.13-7.13-7.13H64.56
			c-3.94,0-7.13,3.19-7.13,7.13v21.4h-2.38c-19.66,0-35.66,16-35.66,35.66V397.4c0,19.66,16,35.66,35.66,35.66h389.91
			c19.66,0,35.66-16,35.66-35.66V150.14C480.62,130.48,464.62,114.48,444.95,114.48z M71.69,100.22h42.79v14.26H71.69V100.22z
			 M444.95,418.8H141.62v0h-36v0H55.05c-11.8,0-21.4-9.6-21.4-21.4v-13.6h-0.03v-212h0.03v-21.66c0-11.8,9.6-21.4,21.4-21.4h142.63
			c0,0,0.01,0,0.01,0c0.02,0,0.03,0,0.05,0c0.27,0,0.53-0.02,0.79-0.05c0.07-0.01,0.15-0.02,0.22-0.03
			c0.21-0.03,0.42-0.07,0.62-0.12c0.07-0.02,0.14-0.04,0.21-0.06c0.22-0.06,0.43-0.13,0.65-0.21c0.05-0.02,0.1-0.03,0.15-0.05
			c0.26-0.11,0.51-0.22,0.75-0.36c0.04-0.02,0.08-0.05,0.12-0.08c0.19-0.11,0.38-0.23,0.56-0.36c0.08-0.06,0.15-0.11,0.23-0.17
			c0.15-0.12,0.3-0.24,0.44-0.37c0.06-0.06,0.13-0.12,0.2-0.18c0.2-0.19,0.38-0.39,0.55-0.6c0.04-0.04,0.07-0.09,0.1-0.13
			c0.15-0.19,0.29-0.39,0.41-0.6c0.02-0.03,0.04-0.06,0.06-0.09l26.45-44.08h134.57l26.45,44.08c0.02,0.03,0.04,0.06,0.06,0.09
			c0.13,0.21,0.27,0.41,0.42,0.6c0.03,0.04,0.06,0.09,0.1,0.13c0.17,0.21,0.36,0.41,0.55,0.6c0.06,0.06,0.13,0.12,0.19,0.18
			c0.14,0.13,0.29,0.25,0.44,0.37c0.08,0.06,0.15,0.12,0.23,0.17c0.18,0.13,0.37,0.25,0.56,0.36c0.04,0.02,0.08,0.05,0.12,0.08
			c0.24,0.13,0.5,0.25,0.75,0.36c0.05,0.02,0.1,0.04,0.15,0.05c0.21,0.08,0.43,0.15,0.65,0.21c0.07,0.02,0.14,0.04,0.21,0.06
			c0.21,0.05,0.41,0.09,0.62,0.12c0.07,0.01,0.15,0.02,0.22,0.03c0.26,0.03,0.52,0.05,0.79,0.05c0.01,0,0.03,0,0.05,0
			c0,0,0.01,0,0.01,0h47.53c11.8,0,21.4,9.6,21.4,21.4V397.4h0C466.35,409.2,456.75,418.8,444.95,418.8z"/>
		<path class="st2" d="M430.69,143.01c-11.8,0-21.4,9.6-21.4,21.4c0,11.8,9.6,21.4,21.4,21.4s21.4-9.6,21.4-21.4
			C452.1,152.61,442.5,143.01,430.69,143.01z M430.69,171.55c-3.94,0-7.14-3.2-7.14-7.14s3.2-7.14,7.14-7.14s7.14,3.2,7.14,7.14
			S434.63,171.55,430.69,171.55z"/>
	</g>
</g>
</svg>
