<?xml version="1.0" encoding="utf-8"?>
<!-- Generator: Adobe Illustrator 23.1.0, SVG Export Plug-In . SVG Version: 6.00 Build 0)  -->
<svg version="1.1" xmlns="http://www.w3.org/2000/svg" xmlns:xlink="http://www.w3.org/1999/xlink" x="0px" y="0px"
	 viewBox="0 0 500 500" style="enable-background:new 0 0 500 500;" xml:space="preserve">
<style type="text/css">
	.st0{display:none;}
	.st1{display:inline;fill:#666666;}
	.st2{fill:#FFFFFF;}
</style>
<g id="HG" class="st0">
	<rect x="-520" class="st1" width="1020" height="1020"/>
</g>
<g id="Icons">
	<path class="st2" d="M249.99,209.05c-5.22-3.45-11.33-5.31-17.73-5.31c-8.6,0-16.69,3.35-22.77,9.43
		c-12.55,12.56-12.55,32.99,0,45.54l35.45,35.45c1.39,1.39,3.22,2.09,5.04,2.09c1.83,0,3.65-0.7,5.04-2.09l35.45-35.45
		c6.08-6.08,9.44-14.17,9.44-22.77c0-8.6-3.35-16.69-9.43-22.77c-6.08-6.08-14.17-9.43-22.77-9.43
		C261.32,203.74,255.2,205.6,249.99,209.05z M285.65,235.95c0,4.79-1.87,9.3-5.26,12.68l-30.41,30.41l-30.41-30.41
		c-6.99-6.99-6.99-18.38,0-25.37c3.39-3.39,7.89-5.25,12.68-5.25c4.79,0,9.3,1.87,12.69,5.25c2.78,2.78,7.3,2.78,10.09,0
		c3.39-3.39,7.89-5.25,12.68-5.25s9.29,1.87,12.68,5.25C283.79,226.65,285.65,231.15,285.65,235.95z"/>
	<path class="st2" d="M69.82,185.01c0.43,0,0.87-0.04,1.3-0.12l178.52-33.75c2.77-0.52,4.96-2.66,5.55-5.42
		c0.59-2.76-0.54-5.6-2.86-7.21l-91.36-63.24c-1.88-1.3-4.28-1.6-6.42-0.81c-2.35,0.87-58.01,22.33-91.17,100.82
		c-1,2.38-0.62,5.11,1,7.12C65.71,184.07,67.72,185.01,69.82,185.01z M156.22,89.01l74.37,51.48L81.8,168.62
		C108.05,115.43,145.18,94.33,156.22,89.01z"/>
	<path class="st2" d="M76.43,330.86l101.89-150.44c1.58-2.34,1.61-5.4,0.06-7.76c-1.54-2.36-4.35-3.57-7.13-3.05l-109.3,20.26
		c-2.25,0.42-4.15,1.91-5.1,3.99c-1.04,2.29-25.04,56.9,7.31,135.73c0.98,2.39,3.19,4.04,5.76,4.31c0.24,0.02,0.48,0.04,0.72,0.04
		C72.94,333.93,75.12,332.79,76.43,330.86z M68.36,202.92l88.98-16.5L72.42,311.82C53.16,255.72,64.36,214.5,68.36,202.92z"/>
	<path class="st2" d="M149.54,251.54c-0.52-2.77-2.66-4.96-5.42-5.55c-2.76-0.59-5.6,0.54-7.21,2.86l-63.25,91.39
		c-1.3,1.88-1.6,4.28-0.81,6.42c0.88,2.35,22.33,58.01,100.82,91.17c0.88,0.37,1.8,0.55,2.72,0.55c1.57,0,3.13-0.53,4.4-1.55
		c2.01-1.62,2.96-4.21,2.48-6.75L149.54,251.54z M87.4,344.99l51.49-74.4l28.11,148.82C113.82,393.16,92.72,356.03,87.4,344.99z"/>
	<path class="st2" d="M330.22,423.79L179.78,321.93c-2.34-1.58-5.4-1.61-7.76-0.06s-3.56,4.36-3.05,7.13l20.26,109.27
		c0.42,2.25,1.91,4.15,3.99,5.1c1.37,0.62,21.63,9.53,54.69,9.53c21.96,0,49.58-3.93,81.04-16.84c2.39-0.98,4.04-3.19,4.31-5.76
		C333.53,427.74,332.36,425.23,330.22,423.79z M202.29,431.86l-16.49-88.95l125.39,84.89C255.08,447.05,213.87,435.86,202.29,431.86
		z"/>
	<path class="st2" d="M429.48,315.36l-178.53,33.73c-2.77,0.52-4.96,2.66-5.55,5.42c-0.59,2.76,0.54,5.6,2.86,7.21l91.38,63.29
		c1.19,0.82,2.58,1.25,3.99,1.25c0.82,0,1.65-0.14,2.44-0.44c2.35-0.88,58.03-22.33,91.17-100.86c1-2.38,0.62-5.11-1-7.12
		C434.6,315.83,432.01,314.88,429.48,315.36z M344.38,411.26l-74.39-51.52l148.81-28.12C392.56,384.83,355.42,405.94,344.38,411.26z
		"/>
	<path class="st2" d="M436.42,169.69c-0.98-2.39-3.19-4.04-5.76-4.31c-2.58-0.27-5.07,0.9-6.52,3.04L322.29,318.87
		c-1.58,2.34-1.61,5.4-0.06,7.76c1.31,2,3.52,3.17,5.86,3.17c0.42,0,0.85-0.04,1.28-0.12l109.3-20.28c1.39-0.26,2.66-0.93,3.66-1.92
		c0.51-0.51,2.08-2.07,5.07-12.56c2.43-8.52,4.19-18.2,5.08-28C454.45,245.21,453.26,210.74,436.42,169.69z M432.25,296.35
		l-88.98,16.51l84.89-125.39C447.45,243.63,436.25,284.8,432.25,296.35z"/>
	<path class="st2" d="M349.07,247.72c0.52,2.77,2.66,4.96,5.42,5.55c0.49,0.1,0.97,0.15,1.46,0.15c2.27,0,4.43-1.1,5.75-3.02
		l63.27-91.38c1.3-1.88,1.6-4.28,0.81-6.42c-0.88-2.35-22.33-58.01-100.84-91.15c-2.37-1-5.11-0.62-7.12,1
		c-2.01,1.62-2.96,4.21-2.48,6.75L349.07,247.72z M411.23,154.29l-51.51,74.39L331.6,79.89C384.8,106.12,405.9,143.25,411.23,154.29
		z"/>
	<path class="st2" d="M169.41,77.46l150.46,101.86c1.18,0.8,2.55,1.2,3.92,1.2c1.33,0,2.67-0.38,3.83-1.14
		c2.36-1.55,3.56-4.36,3.05-7.13L310.38,62.96c-0.42-2.25-1.91-4.15-3.99-5.1c-2.29-1.04-56.87-25.04-135.72,7.33
		c-2.39,0.98-4.04,3.19-4.3,5.76S167.27,76.01,169.41,77.46z M297.33,69.37l16.52,88.96l-125.4-84.89
		C244.55,54.18,285.75,65.37,297.33,69.37z"/>
	<path class="st2" d="M250.02,19C122.44,19,19,122.44,19,250c0,127.55,103.42,231,231.02,231C377.56,481,481,377.53,481,250
		C481.02,122.44,377.58,19,250.02,19z M250.02,466.38c-119.31,0-216.4-97.07-216.4-216.38s97.09-216.38,216.4-216.38
		c119.28,0,216.36,97.07,216.36,216.38C466.38,369.31,369.29,466.38,250.02,466.38z"/>
</g>
</svg>
