<?xml version="1.0" encoding="utf-8"?>
<!-- Generator: Adobe Illustrator 23.1.0, SVG Export Plug-In . SVG Version: 6.00 Build 0)  -->
<svg version="1.1" xmlns="http://www.w3.org/2000/svg" xmlns:xlink="http://www.w3.org/1999/xlink" x="0px" y="0px"
	 viewBox="0 0 500 500" style="enable-background:new 0 0 500 500;" xml:space="preserve">
<style type="text/css">
	.st0{display:none;}
	.st1{display:inline;fill:#666666;}
	.st2{fill:#FFFFFF;}
</style>
<g id="HG" class="st0">
	<rect x="-520" y="-520" class="st1" width="1020" height="1020"/>
</g>
<g id="Icons">
	<g>
		<path class="st2" d="M388.01,156.26c-1.94-2.03-3.93-4.02-5.96-5.96h-0.02l22.64-22.63c2.98-2.98,2.98-7.82,0-10.8l-21.62-21.62
			c-2.98-2.98-7.82-2.98-10.8,0l-27.28,27.28c-22.16-12.78-46.67-20.94-72.06-24V66.54h30.56c4.22,0,7.64-3.42,7.64-7.64V28.34
			c0-4.22-3.42-7.64-7.64-7.64H196.5c-4.22,0-7.64,3.42-7.64,7.64V58.9c0,4.22,3.42,7.64,7.64,7.64h30.56v31.98
			c-25.39,3.05-49.9,11.21-72.06,23.97l-27.26-27.28c-2.98-2.98-7.82-2.98-10.8,0l-21.62,21.62c-2.98,2.98-2.98,7.82,0,10.8
			l22.64,22.65c-76.22,72.92-78.89,193.83-5.96,270.05s193.83,78.89,270.05,5.96S460.93,232.47,388.01,156.26z M377.64,111.42
			l10.82,10.82l-17.89,17.89c-3.99-3.25-8.11-6.35-12.36-9.27L377.64,111.42z M204.14,51.26V35.98h91.68v15.28h-30.56
			c-4.22,0-7.64,3.42-7.64,7.64v38.39c-2.54-0.1-5.08-0.19-7.64-0.19s-5.1,0.09-7.64,0.19V58.9c0-4.22-3.42-7.64-7.64-7.64H204.14z
			 M111.49,122.24l10.82-10.82l19.43,19.43c-4.25,2.93-8.37,6.03-12.36,9.27L111.49,122.24z M249.98,463.82
			c-97.05,0-175.72-78.67-175.72-175.72s78.67-175.72,175.72-175.72S425.7,191.05,425.7,288.1
			C425.59,385.1,346.98,463.71,249.98,463.82z"/>
		<path class="st2" d="M363.77,174.31c-30.39-30.39-70.81-47.16-113.79-47.21h0c-88.78,0-161,72.22-161,161s72.22,161,161,161
			s161-72.22,161-161C410.93,245.12,394.16,204.71,363.77,174.31z M249.98,143.39c79.8,0,144.71,64.92,144.71,144.71
			c-0.09,79.71-65.01,144.63-144.71,144.71c-79.8,0-144.71-64.92-144.71-144.71S170.18,143.39,249.98,143.39z"/>
		<path class="st2" d="M234.69,311.03h107c4.22,0,7.64-3.42,7.64-7.64v-30.57c0-4.22-3.42-7.64-7.64-7.64h-68.79v-99.36
			c0-4.22-3.42-7.64-7.64-7.64h-30.57c-4.22,0-7.64,3.42-7.64,7.64v137.57C227.05,307.61,230.47,311.03,234.69,311.03z
			 M242.33,173.46h15.29v99.36c0,4.22,3.42,7.64,7.64,7.64h68.79v15.29h-91.71V173.46z"/>
	</g>
</g>
</svg>
