<?xml version="1.0" encoding="utf-8"?>
<!-- Generator: Adobe Illustrator 23.1.0, SVG Export Plug-In . SVG Version: 6.00 Build 0)  -->
<svg version="1.1" xmlns="http://www.w3.org/2000/svg" xmlns:xlink="http://www.w3.org/1999/xlink" x="0px" y="0px"
	 viewBox="0 0 500 500" style="enable-background:new 0 0 500 500;" xml:space="preserve">
<style type="text/css">
	.st0{display:none;}
	.st1{display:inline;fill:#666666;}
	.st2{fill:#FFFFFF;}
</style>
<g id="HG" class="st0">
	<rect class="st1" width="1020" height="1020"/>
</g>
<g id="Icons">
	<g>
		<g>
			<g>
				<path class="st2" d="M444.95,114.48h-43.51L374.99,70.4c-0.03-0.04-0.06-0.08-0.08-0.12c-0.08-0.12-0.15-0.24-0.24-0.35
					c-0.06-0.09-0.12-0.17-0.19-0.25c-0.07-0.09-0.15-0.19-0.23-0.28c-0.08-0.09-0.16-0.18-0.24-0.27
					c-0.07-0.08-0.15-0.15-0.22-0.22c-0.09-0.09-0.19-0.18-0.28-0.26c-0.08-0.07-0.16-0.13-0.24-0.19c-0.1-0.08-0.2-0.15-0.3-0.22
					c-0.09-0.06-0.19-0.13-0.28-0.19c-0.09-0.06-0.19-0.12-0.29-0.17c-0.11-0.06-0.23-0.12-0.34-0.18
					c-0.09-0.04-0.17-0.09-0.26-0.12c-0.13-0.06-0.26-0.11-0.39-0.16c-0.08-0.03-0.16-0.06-0.25-0.09
					c-0.13-0.05-0.27-0.08-0.41-0.12c-0.09-0.02-0.18-0.05-0.27-0.07c-0.13-0.03-0.26-0.05-0.39-0.08
					c-0.11-0.02-0.21-0.04-0.32-0.05c-0.11-0.01-0.23-0.03-0.35-0.04c-0.13-0.01-0.26-0.02-0.39-0.02c-0.05,0-0.11-0.01-0.16-0.01
					H226.23c-0.05,0-0.1,0.01-0.15,0.01c-0.14,0-0.28,0.01-0.42,0.02c-0.11,0.01-0.21,0.02-0.32,0.03
					c-0.12,0.01-0.23,0.03-0.35,0.05c-0.12,0.02-0.25,0.05-0.37,0.07c-0.1,0.02-0.19,0.05-0.29,0.07c-0.13,0.04-0.26,0.07-0.39,0.12
					c-0.09,0.03-0.18,0.06-0.27,0.1c-0.13,0.05-0.25,0.1-0.37,0.15c-0.09,0.04-0.18,0.09-0.27,0.13c-0.11,0.05-0.22,0.11-0.33,0.17
					c-0.1,0.06-0.2,0.12-0.29,0.18c-0.09,0.06-0.19,0.12-0.28,0.18c-0.1,0.07-0.2,0.15-0.3,0.23c-0.08,0.06-0.16,0.13-0.24,0.19
					c-0.1,0.08-0.19,0.17-0.28,0.26c-0.08,0.07-0.15,0.15-0.23,0.22c-0.08,0.09-0.16,0.17-0.24,0.26c-0.08,0.09-0.16,0.19-0.23,0.28
					c-0.06,0.08-0.13,0.16-0.19,0.25c-0.08,0.12-0.16,0.23-0.24,0.35c-0.03,0.04-0.06,0.08-0.08,0.12l-26.45,44.08h-64.91v-21.4
					c0-3.94-3.19-7.13-7.13-7.13H64.56c-3.94,0-7.13,3.19-7.13,7.13v21.4h-2.38c-19.66,0-35.66,16-35.66,35.66V397.4
					c0,19.66,16,35.66,35.66,35.66h389.91c19.66,0,35.66-16,35.66-35.66V150.14C480.62,130.48,464.62,114.48,444.95,114.48z
					 M71.69,100.22h42.79v14.26H71.69V100.22z M444.95,418.8H128.75V150.15c0-3.94-3.19-7.13-7.13-7.13c-3.94,0-7.13,3.19-7.13,7.13
					V418.8H55.05c-11.8,0-21.4-9.6-21.4-21.4V347h21.4c3.94,0,7.13-3.19,7.13-7.13c0-3.94-3.19-7.13-7.13-7.13h-21.4V309.2h21.4
					c3.94,0,7.13-3.19,7.13-7.13c0-3.94-3.19-7.13-7.13-7.13h-21.4V271.4h21.4c3.94,0,7.13-3.19,7.13-7.13
					c0-3.94-3.19-7.13-7.13-7.13h-21.4v-23.54h21.4c3.94,0,7.13-3.19,7.13-7.13c0-3.94-3.19-7.13-7.13-7.13h-21.4v-69.18
					c0-11.8,9.6-21.4,21.4-21.4h142.63c0,0,0.01,0,0.01,0c0.02,0,0.03,0,0.05,0c0.27,0,0.53-0.02,0.79-0.05
					c0.07-0.01,0.15-0.02,0.22-0.03c0.21-0.03,0.42-0.07,0.62-0.12c0.07-0.02,0.14-0.04,0.21-0.06c0.22-0.06,0.43-0.13,0.65-0.21
					c0.05-0.02,0.1-0.03,0.15-0.05c0.26-0.11,0.51-0.22,0.75-0.36c0.04-0.02,0.08-0.05,0.12-0.08c0.19-0.11,0.38-0.23,0.56-0.36
					c0.08-0.06,0.15-0.11,0.23-0.17c0.15-0.12,0.3-0.24,0.44-0.37c0.06-0.06,0.13-0.12,0.2-0.18c0.2-0.19,0.38-0.39,0.55-0.6
					c0.04-0.04,0.07-0.09,0.1-0.13c0.15-0.19,0.29-0.39,0.41-0.6c0.02-0.03,0.04-0.06,0.06-0.09l26.45-44.08h134.57l26.45,44.08
					c0.02,0.03,0.04,0.06,0.06,0.09c0.13,0.21,0.27,0.41,0.42,0.6c0.03,0.04,0.06,0.09,0.1,0.13c0.17,0.21,0.36,0.41,0.55,0.6
					c0.06,0.06,0.13,0.12,0.19,0.18c0.14,0.13,0.29,0.25,0.44,0.37c0.08,0.06,0.15,0.12,0.23,0.17c0.18,0.13,0.37,0.25,0.56,0.36
					c0.04,0.02,0.08,0.05,0.12,0.08c0.24,0.13,0.5,0.25,0.75,0.36c0.05,0.02,0.1,0.04,0.15,0.05c0.21,0.08,0.43,0.15,0.64,0.21
					c0.07,0.02,0.14,0.04,0.21,0.06c0.21,0.05,0.41,0.09,0.62,0.12c0.07,0.01,0.15,0.02,0.22,0.03c0.26,0.03,0.52,0.05,0.79,0.05
					c0.01,0,0.03,0,0.05,0c0,0,0.01,0,0.01,0h47.53c11.8,0,21.4,9.6,21.4,21.4V397.4h0C466.35,409.2,456.75,418.8,444.95,418.8z"/>
			</g>
		</g>
		<g>
			<g>
				<path class="st2" d="M297.54,181.05c-53.75,0-97.48,43.73-97.48,97.48S243.79,376,297.54,376s97.48-43.73,97.48-97.48
					C395.01,224.78,351.29,181.05,297.54,181.05z M297.54,361.74c-45.88,0-83.21-37.33-83.21-83.21s37.33-83.21,83.21-83.21
					c45.88,0,83.21,37.33,83.21,83.21S343.42,361.74,297.54,361.74z"/>
			</g>
		</g>
		<g>
			<g>
				<path class="st2" d="M338.03,245.38c-6.08-6.08-14.17-9.43-22.77-9.43c-6.4,0-12.51,1.85-17.73,5.31
					c-5.22-3.45-11.33-5.31-17.73-5.31c-8.6,0-16.69,3.35-22.77,9.43c-12.55,12.56-12.55,32.99,0,45.54l35.45,35.45
					c1.39,1.39,3.22,2.09,5.04,2.09c1.83,0,3.65-0.7,5.04-2.09l35.45-35.45c6.08-6.08,9.44-14.17,9.44-22.77
					C347.47,259.54,344.12,251.46,338.03,245.38z M327.95,280.83l-30.41,30.41l-30.41-30.41c-6.99-6.99-6.99-18.38,0-25.37
					c3.39-3.39,7.89-5.25,12.68-5.25c4.79,0,9.3,1.87,12.69,5.25c2.78,2.78,7.3,2.78,10.09,0c3.39-3.39,7.89-5.25,12.68-5.25
					s9.29,1.87,12.68,5.25c3.39,3.39,5.26,7.89,5.26,12.68C333.2,272.94,331.34,277.44,327.95,280.83z"/>
			</g>
		</g>
		<g>
			<g>
				<path class="st2" d="M365.99,118.97l-7.61-19.02c-0.01-0.02-0.01-0.03-0.02-0.04c-0.06-0.15-0.13-0.3-0.21-0.45
					c-0.03-0.07-0.06-0.14-0.1-0.2c-0.06-0.12-0.14-0.24-0.21-0.35c-0.05-0.09-0.1-0.18-0.16-0.26c-0.05-0.07-0.11-0.14-0.16-0.22
					c-0.09-0.12-0.17-0.24-0.26-0.35c-0.02-0.03-0.04-0.05-0.07-0.07c-0.28-0.33-0.58-0.63-0.9-0.9c-0.03-0.02-0.06-0.04-0.09-0.07
					c-0.15-0.12-0.3-0.23-0.45-0.34c-0.16-0.11-0.34-0.22-0.51-0.31c-0.02-0.01-0.04-0.03-0.06-0.04c-0.37-0.21-0.77-0.37-1.18-0.51
					c-0.03-0.01-0.05-0.02-0.08-0.03c-0.14-0.05-0.29-0.08-0.44-0.12c-0.08-0.02-0.16-0.05-0.25-0.06c-0.1-0.02-0.21-0.04-0.32-0.05
					c-0.13-0.02-0.26-0.05-0.39-0.06c-0.08-0.01-0.16-0.01-0.24-0.02c-0.16-0.01-0.33-0.02-0.49-0.02c-0.02,0-0.03,0-0.05,0H243.35
					c-0.01,0-0.03,0-0.04,0c-0.18,0-0.35,0.01-0.52,0.03c-0.07,0.01-0.13,0.01-0.2,0.01c-0.15,0.02-0.29,0.04-0.44,0.07
					c-0.09,0.02-0.18,0.03-0.27,0.05c-0.1,0.02-0.2,0.05-0.3,0.08c-0.13,0.03-0.26,0.06-0.39,0.1c-0.05,0.01-0.09,0.04-0.14,0.05
					c-0.17,0.06-0.34,0.12-0.51,0.19c-0.01,0-0.02,0.01-0.03,0.01c-0.2,0.09-0.4,0.18-0.58,0.28c-0.05,0.03-0.09,0.06-0.13,0.08
					c-0.15,0.09-0.3,0.17-0.44,0.27c-0.16,0.11-0.32,0.23-0.48,0.36c-0.02,0.02-0.04,0.03-0.06,0.05c-0.32,0.27-0.62,0.57-0.9,0.89
					c-0.02,0.03-0.05,0.05-0.07,0.08c-0.09,0.11-0.18,0.23-0.26,0.35c-0.05,0.07-0.11,0.14-0.16,0.22
					c-0.06,0.08-0.11,0.17-0.16,0.26c-0.07,0.12-0.15,0.23-0.21,0.36c-0.03,0.07-0.06,0.14-0.1,0.2c-0.07,0.15-0.15,0.3-0.21,0.45
					c-0.01,0.02-0.01,0.03-0.02,0.04l-7.61,19.02c-1.46,3.66,0.31,7.81,3.97,9.27c0.87,0.35,1.77,0.51,2.65,0.51
					c2.83,0,5.51-1.7,6.62-4.49l5.81-14.53h98.75l5.81,14.53c1.12,2.79,3.79,4.49,6.62,4.49c0.88,0,1.78-0.16,2.65-0.51
					C365.67,126.77,367.45,122.62,365.99,118.97z"/>
			</g>
		</g>
		<g>
			<g>
				<path class="st2" d="M430.69,143.01c-11.8,0-21.4,9.6-21.4,21.4c0,11.8,9.6,21.4,21.4,21.4s21.4-9.6,21.4-21.4
					C452.1,152.61,442.5,143.01,430.69,143.01z M430.69,171.55c-3.94,0-7.14-3.2-7.14-7.14s3.2-7.14,7.14-7.14
					c3.94,0,7.14,3.2,7.14,7.14S434.63,171.55,430.69,171.55z"/>
			</g>
		</g>
		<g>
			<g>
				<path class="st2" d="M419.75,247.8c-13.75-54.68-63.32-95.28-122.21-95.28c-69.48,0-126.01,56.53-126.01,126.01
					s56.53,126.01,126.01,126.01c58.88,0,108.46-40.6,122.21-95.28c15.48-1.67,27.57-14.81,27.57-30.72
					C447.32,262.61,435.23,249.47,419.75,247.8z M297.54,390.27c-61.61,0-111.74-50.13-111.74-111.74s50.13-111.74,111.74-111.74
					c53.7,0,98.67,38.08,109.34,88.66c0,0.05,0,0.1,0.01,0.15c0.05,0.53,0.17,1.04,0.33,1.52c1.35,6.93,2.07,14.09,2.07,21.41
					C409.28,340.14,359.15,390.27,297.54,390.27z M422.6,293.96c0.62-5.06,0.95-10.21,0.95-15.44s-0.33-10.38-0.95-15.44
					c6.12,2.46,10.46,8.45,10.46,15.44C433.05,285.52,428.72,291.5,422.6,293.96z"/>
			</g>
		</g>
		<g>
			<g>
				<path class="st2" d="M178.68,162.03h-28.53c-3.94,0-7.13,3.19-7.13,7.13c0,3.94,3.19,7.13,7.13,7.13h28.53
					c3.94,0,7.13-3.19,7.13-7.13C185.81,165.23,182.62,162.03,178.68,162.03z"/>
			</g>
		</g>
	</g>
</g>
</svg>
